<?xml version="1.0" encoding="UTF-8"?>
<svg id="uuid-886cc0be-60d9-4797-bf4b-3e7fffe567ff" data-name="Layer 2" xmlns="http://www.w3.org/2000/svg" width="113.44" height="130.99" xmlns:xlink="http://www.w3.org/1999/xlink" viewBox="0 0 113.44 130.99">
  <defs>
    <linearGradient id="uuid-c1720a97-3002-42dc-86c9-77fb70ed1d29" x1="85.08" y1="16.37" x2="28.36" y2="114.62" gradientUnits="userSpaceOnUse">
      <stop offset="0" stop-color="#7790e2"/>
      <stop offset="1" stop-color="#486ddc"/>
    </linearGradient>
  </defs>
  <g id="uuid-cfd9e53e-3f92-4b40-97d1-431a9e9e9b65" data-name="Layer 1">
    <g>
      <path d="m56.72,0L0,32.75v65.49l56.72,32.75,56.72-32.75V32.75L56.72,0ZM20.99,80.31v-35.45s30.7-17.72,30.7-17.72l10,5.77-30.71,17.72v35.45s-9.99-5.77-9.99-5.77Zm40.77,23.54l-10-5.77,30.71-17.72v-35.45s9.99,5.77,9.99,5.77v35.45s-30.7,17.72-30.7,17.72Z" style="fill: url(#uuid-c1720a97-3002-42dc-86c9-77fb70ed1d29);"/>
      <polygon points="72.11 74.38 72.11 56.61 56.72 47.73 41.33 56.61 41.33 74.38 56.72 83.26 72.11 74.38" style="fill: #0c162c;"/>
    </g>
  </g>
</svg>