<?xml version="1.0" encoding="UTF-8"?>
<svg id="uuid-e6aa89bc-d621-4516-9ef6-7cce9fa14e44" data-name="Layer 2" xmlns="http://www.w3.org/2000/svg" width="113.44" height="130.99" xmlns:xlink="http://www.w3.org/1999/xlink" viewBox="0 0 113.44 130.99">
  <defs>
    <linearGradient id="uuid-eb5bd691-db45-4505-9845-374abe337a42" x1="85.08" y1="16.37" x2="28.36" y2="114.62" gradientUnits="userSpaceOnUse">
      <stop offset="0" stop-color="#7790e2"/>
      <stop offset="1" stop-color="#486ddc"/>
    </linearGradient>
  </defs>
  <g id="uuid-8bf13900-9d2b-4d86-9df1-e8978ee7ded9" data-name="Layer 1">
    <g>
      <path d="m56.72,0L0,32.75v65.49l56.72,32.75,56.72-32.75V32.75L56.72,0Zm40.78,73.1c-.23-.12-.45-.23-.69-.33-4.4-1.82-9.44.27-11.26,4.67-1.82,4.4.27,9.44,4.66,11.26.24.1.48.18.73.26-2.89,4.21-6.54,7.86-10.75,10.75-.08-.24-.16-.49-.26-.73-1.82-4.4-6.86-6.49-11.26-4.67-4.4,1.82-6.49,6.86-4.66,11.26.1.24.21.47.33.69-2.47.46-5,.71-7.6.71s-5.14-.25-7.6-.71c.12-.23.23-.45.33-.69,1.82-4.4-.27-9.44-4.67-11.26-4.4-1.82-9.44.27-11.26,4.67-.1.24-.18.48-.26.73-4.21-2.89-7.86-6.54-10.75-10.75.24-.08.49-.16.73-.26,4.4-1.82,6.49-6.86,4.67-11.26-1.82-4.4-6.86-6.49-11.26-4.67-.24.1-.47.21-.69.33-.46-2.47-.71-5-.71-7.6s.25-5.14.71-7.6c.23.12.45.23.69.33,4.4,1.82,9.44-.27,11.26-4.66,1.82-4.4-.27-9.44-4.67-11.26-.24-.1-.48-.18-.73-.26,2.89-4.21,6.54-7.86,10.75-10.75.08.24.16.49.26.73,1.82,4.4,6.86,6.49,11.26,4.66,4.4-1.82,6.49-6.86,4.67-11.26-.1-.24-.21-.47-.33-.69,2.47-.46,5-.71,7.6-.71s5.14.25,7.6.71c-.12.23-.23.45-.33.69-1.82,4.4.27,9.44,4.66,11.26,4.4,1.82,9.44-.27,11.26-4.66.1-.24.18-.48.26-.73,4.21,2.89,7.86,6.54,10.75,10.75-.24.08-.49.16-.73.26-4.4,1.82-6.49,6.86-4.66,11.26,1.82,4.4,6.86,6.49,11.26,4.66.24-.1.47-.21.69-.33.46,2.47.71,5,.71,7.6s-.25,5.14-.71,7.6Z" style="fill: url(#uuid-eb5bd691-db45-4505-9845-374abe337a42);"/>
      <path d="m97.5,57.89c-.23.12-.45.23-.69.33-4.4,1.82-9.44-.27-11.26-4.66-1.82-4.4.27-9.44,4.66-11.26.24-.1.48-.18.73-.26-2.89-4.21-6.54-7.86-10.75-10.75-.08.24-.16.49-.26.73-1.82,4.4-6.86,6.49-11.26,4.66-4.4-1.82-6.49-6.86-4.66-11.26.1-.24.21-.47.33-.69-2.47-.46-5-.71-7.6-.71s-5.14.25-7.6.71c.12.23.23.45.33.69,1.82,4.4-.27,9.44-4.67,11.26-4.4,1.82-9.44-.27-11.26-4.66-.1-.24-.18-.48-.26-.73-4.21,2.89-7.86,6.54-10.75,10.75.24.08.49.16.73.26,4.4,1.82,6.49,6.86,4.67,11.26-1.82,4.4-6.86,6.49-11.26,4.66-.24-.1-.47-.21-.69-.33-.46,2.47-.71,5-.71,7.6s.25,5.14.71,7.6c.23-.12.45-.23.69-.33,4.4-1.82,9.44.27,11.26,4.67,1.82,4.4-.27,9.44-4.67,11.26-.24.1-.48.18-.73.26,2.89,4.21,6.54,7.86,10.75,10.75.08-.24.16-.49.26-.73,1.82-4.4,6.86-6.49,11.26-4.67,4.4,1.82,6.49,6.86,4.67,11.26-.1.24-.21.47-.33.69,2.47.46,5,.71,7.6.71s5.14-.25,7.6-.71c-.12-.23-.23-.45-.33-.69-1.82-4.4.27-9.44,4.66-11.26,4.4-1.82,9.44.27,11.26,4.67.1.24.18.48.26.73,4.21-2.89,7.86-6.54,10.75-10.75-.24-.08-.49-.16-.73-.26-4.4-1.82-6.49-6.86-4.66-11.26,1.82-4.4,6.86-6.49,11.26-4.67.24.1.47.21.69.33.46-2.47.71-5,.71-7.6s-.25-5.14-.71-7.6Zm-33.02,21.04c-4.8,2.77-10.71,2.77-15.51,0h0c-4.8-2.77-7.76-7.89-7.76-13.44s2.96-10.66,7.76-13.44h0c4.8-2.77,10.71-2.77,15.51,0,4.8,2.77,7.76,7.89,7.76,13.44s-2.96,10.66-7.76,13.44Z"/>
    </g>
  </g>
</svg>